<svg width="20" height="18" viewBox="0 0 20 18" fill="none" xmlns="http://www.w3.org/2000/svg">
<path d="M2 1L18 17" stroke="#4476E5" stroke-width="2" stroke-linecap="round" stroke-linejoin="round"/>
<path d="M8.85721 2.76588C9.23041 2.72237 9.61163 2.70001 10 2.70001C14.1976 2.70001 17.5599 5.31239 19 9.00001C18.6449 9.90938 18.1728 10.7534 17.6002 11.5089M5.06766 4.0675C3.23159 5.18766 1.811 6.92334 1 9.00001C2.44012 12.6876 5.80243 15.3 10 15.3C11.8338 15.3 13.5082 14.8014 14.9325 13.9324M8.0909 7.09074C7.60224 7.57935 7.3 8.25438 7.3 9.00001C7.3 10.4912 8.50883 11.7 10 11.7C10.7456 11.7 11.4207 11.3978 11.9093 10.9091" stroke="#4476E5" stroke-width="2" stroke-linecap="round" stroke-linejoin="round"/>
<path d="M2.7998 1.79999L17.1998 16.2" stroke="#4476E5" stroke-width="2" stroke-linecap="round"/>
</svg>
